PathFileType	4	(X/Y/Z)	/Users/itak/Documents/Research/Walk-IL/dataset/trc/00002_00004.trc
DataRate	CameraRate	NumFrames	NumMarkers	Units	OrigDataRate	OrigDataStartFrame	OrigNumFrames
100.000000	100.000000	4	54	mm	100.000000	199	531
Frame#	Time	RPSI			LPSI			L3			STRN			T10			C7			CLAV			RBAK			LBAK			LSHO			LUPA			LAEL			LAOL			LWTS			LWPS			LFRA			LIFD			LHPS			LHTS			RSHO			RUPA			RAEL			RAOL			RWTS			RWPS			RFRA			RIFD			RHTS			RHPS			RBHD			LFHD			RFHD			LBHD			LHIP			RHIP			RASI			LASI			LKNE			LTHI			LANK			LTIP			LTOE			LMT1			LMT5			LHEE			RKNE			RTHI			RANK			RTIP			RTOE			RMT1			RMT5			RHEE			*53			
		X1	Y1	Z1	X2	Y2	Z2	X3	Y3	Z3	X4	Y4	Z4	X5	Y5	Z5	X6	Y6	Z6	X7	Y7	Z7	X8	Y8	Z8	X9	Y9	Z9	X10	Y10	Z10	X11	Y11	Z11	X12	Y12	Z12	X13	Y13	Z13	X14	Y14	Z14	X15	Y15	Z15	X16	Y16	Z16	X17	Y17	Z17	X18	Y18	Z18	X19	Y19	Z19	X20	Y20	Z20	X21	Y21	Z21	X22	Y22	Z22	X23	Y23	Z23	X24	Y24	Z24	X25	Y25	Z25	X26	Y26	Z26	X27	Y27	Z27	X28	Y28	Z28	X29	Y29	Z29	X30	Y30	Z30	X31	Y31	Z31	X32	Y32	Z32	X33	Y33	Z33	X34	Y34	Z34	X35	Y35	Z35	X36	Y36	Z36	X37	Y37	Z37	X38	Y38	Z38	X39	Y39	Z39	X40	Y40	Z40	X41	Y41	Z41	X42	Y42	Z42	X43	Y43	Z43	X44	Y44	Z44	X45	Y45	Z45	X46	Y46	Z46	X47	Y47	Z47	X48	Y48	Z48	X49	Y49	Z49	X50	Y50	Z50	X51	Y51	Z51	X52	Y52	Z52	X53	Y53	Z53	X54	Y54	Z54	

200	1.99	-1137.49072265625	1061.032348632812	-120.5643997192383	-1143.974609375	1061.349975585938	-283.9679870605469	-1140.272827148438	1128.244140625	-205.9932556152344	-904.685302734375	1306.484985351562	-199.5046844482422	-1158.138916015625	1272.416381835938	-202.3570404052734	-1095.088989257812	1537.004272460938	-206.9656219482422	-941.0889892578125	1434.88427734375	-202.4310455322266	-1153.87158203125	1401.628540039062	-129.3984069824219	-1113.578125	1498.146606445312	-305.7602844238281	-1010.01171875	1499.52099609375	-378.6004333496094	-1050.037231445312	1378.6328125	-457.7824096679688	-1072.893188476562	1163.148193359375	-484.1907348632812	-1126.777587890625	1153.1357421875	-392.6355895996094	-992.3228759765625	907.7686767578125	-437.2007141113281	-1072.5302734375	895.1083374023438	-472.8967590332031	-1067.112915039062	1046.606811523438	-491.8546142578125	-961.3099365234375	728.208984375	-422.1875305175781	-1040.014770507812	805.3501586914062	-475.865234375	-972.6205444335938	815.3546142578125	-454.6177978515625	-1019.184448242188	1516.105102539062	-32.37754058837891	-1036.538940429688	1443.883666992188	39.56877517700195	-1086.14306640625	1177.577392578125	61.69276428222656	-1090.487426757812	1149.93798828125	-35.19949722290039	-972.156982421875	911.3868408203125	32.89248275756836	-1040.181030273438	901.15625	96.5101318359375	-1077.379150390625	1101.740356445312	77.01441955566406	-968.8355712890625	726.702880859375	17.55153465270996	-947.3200073242188	799.7525024414062	49.41699981689453	-1004.848449707031	798.6751708984375	97.08489227294922	-1032.722534179688	1715.647583007812	-268.6782531738281	-858.8200073242188	1719.455932617188	-136.2634582519531	-853.2152099609375	1721.554077148438	-234.5674438476562	-1033.348754882812	1707.901123046875	-124.1122894287109	-1045.832763671875	969.4954833984375	-400.3484191894531	-1028.78271484375	943.251708984375	-22.51432037353516	-924.064208984375	973.6048583984375	-95.67181396484375	-933.3382568359375	1006.953125	-329.409423828125	-861.470947265625	550.8665161132812	-363.8815002441406	-930.6119995117188	674.8179931640625	-397.3877563476562	-951.0621337890625	53.56270599365234	-376.5986633300781	-931.3359985351562	301.9613037109375	-389.9301147460938	-735.8500366210938	54.24066162109375	-311.8381958007812	-793.6932983398438	59.28322601318359	-293.9885559082031	-827.1415405273438	54.47789764404297	-394.9330139160156	-1019.855163574219	58.62067031860352	-323.9320983886719	-1067.329345703125	511.6072082519531	-89.87590026855469	-1017.698181152344	775.259521484375	-35.090087890625	-1234.363525390625	46.33295822143555	-133.3069152832031	-1107.002075195312	391.4932250976562	-94.61856842041016	-1003.285949707031	45.33598709106445	-177.79638671875	-1065.578125	50.81880569458008	-207.5338897705078	-1086.191528320312	44.81402587890625	-112.4986724853516	-1290.052001953125	46.43583297729492	-176.9909057617188	nan	nan	nan	
201	2	-1133.872314453125	1060.360717773438	-120.7773666381836	-1140.371459960938	1060.723876953125	-284.1455383300781	-1136.638427734375	1127.608032226562	-206.1865997314453	-900.8986206054688	1305.723388671875	-199.835693359375	-1154.37744140625	1271.870361328125	-202.5974731445312	-1091.081787109375	1536.39013671875	-207.3707427978516	-937.2123413085938	1434.161987304688	-202.8176574707031	-1150.003540039062	1401.112182617188	-129.7046661376953	-1109.6474609375	1497.506225585938	-306.1298217773438	-1006.143798828125	1498.745849609375	-378.9916687011719	-1046.241455078125	1377.860229492188	-458.1011047363281	-1069.37744140625	1162.399536132812	-484.3880004882812	-1123.111572265625	1152.4482421875	-392.7383422851562	-989.1470947265625	906.8800659179688	-437.5375061035156	-1069.27587890625	894.3533935546875	-473.0387573242188	-1063.750366210938	1045.852294921875	-492.0411682128906	-958.0883178710938	727.3650512695312	-422.512451171875	-1036.841918945312	804.5565795898438	-476.0516662597656	-969.3554077148438	814.5381469726562	-454.9752807617188	-1015.182250976562	1515.497192382812	-32.77682876586914	-1032.526733398438	1443.331665039062	39.22027206420898	-1082.231811523438	1177.039428710938	61.56476593017578	-1086.66259765625	1149.344360351562	-35.28500747680664	-967.9881591796875	910.9463500976562	32.77032852172852	-1035.98388671875	900.644287109375	96.45714569091797	-1073.40673828125	1101.197631835938	76.92728424072266	-964.5496215820312	726.2610473632812	17.4803295135498	-943.1217041015625	799.3113403320312	49.28836441040039	-1000.531494140625	798.2162475585938	97.03453826904297	-1028.407104492188	1715.054443359375	-269.1043395996094	-854.5198974609375	1718.475830078125	-136.6676330566406	-848.8621215820312	1720.59228515625	-234.9719848632812	-1029.047607421875	1707.27978515625	-124.545768737793	-1041.963623046875	969.013916015625	-400.5331420898438	-1025.250244140625	942.5718383789062	-22.67157936096191	-920.471923828125	972.8877563476562	-95.72908020019531	-929.6029663085938	1006.432312011719	-329.47412109375	-855.595458984375	551.749755859375	-363.4639282226562	-925.4229736328125	674.955810546875	-397.3323669433594	-934.6407470703125	53.17008209228516	-376.8716125488281	-920.2423095703125	301.9057312011719	-389.9358520507812	-719.9363403320312	55.85686492919922	-310.4652404785156	-777.9535522460938	60.40147399902344	-293.0250854492188	-810.5963134765625	55.47509384155273	-394.2412414550781	-1003.793518066406	57.38573837280273	-324.7248840332031	-1065.485229492188	511.111328125	-89.92453002929688	-1014.74365234375	774.6111450195312	-35.27589797973633	-1234.342407226562	46.38790512084961	-133.4117584228516	-1105.618530273438	391.1776123046875	-94.69358062744141	-1003.22705078125	45.30942535400391	-177.7508392333984	-1065.526489257812	50.78487014770508	-207.5164031982422	-1086.183349609375	44.80617141723633	-112.462760925293	-1290.032348632812	46.53458023071289	-177.0439147949219	nan	nan	nan	
202	2.01	-1130.137451171875	1059.649291992188	-121.0147476196289	-1136.645385742188	1060.02587890625	-284.3521423339844	-1132.883056640625	1126.9228515625	-206.4157104492188	-897.0180053710938	1304.931640625	-200.2297058105469	-1150.515502929688	1271.272705078125	-202.8860168457031	-1086.992919921875	1535.734497070312	-207.8379058837891	-933.2266235351562	1433.408203125	-203.2731170654297	-1146.044799804688	1400.549682617188	-130.0716247558594	-1105.6376953125	1496.817138671875	-306.5622253417969	-1002.181945800781	1497.916625976562	-379.4529418945312	-1042.355834960938	1377.043212890625	-458.4834289550781	-1065.7646484375	1161.602172851562	-484.6624755859375	-1119.350952148438	1151.715209960938	-392.9263916015625	-985.84326171875	905.9650268554688	-437.9271850585938	-1065.857055664062	893.5514526367188	-473.2380676269531	-1060.260498046875	1045.049438476562	-492.297119140625	-954.69091796875	726.490966796875	-422.8561706542969	-1033.488037109375	803.7210083007812	-476.2786560058594	-965.9171752929688	813.7005615234375	-455.3619384765625	-1011.088012695312	1514.851684570312	-33.24233627319336	-1028.421264648438	1442.7412109375	38.80648422241211	-1078.21240234375	1176.462280273438	61.3651123046875	-1082.721313476562	1148.706298828125	-35.44091033935547	-963.7062377929688	910.4658813476562	32.5825309753418	-1031.66162109375	900.09619140625	96.3409423828125	-1069.324096679688	1100.612670898438	76.77056121826172	-960.1405639648438	725.7766723632812	17.3583869934082	-938.7919311523438	798.841064453125	49.10068893432617	-996.0933227539062	797.7271118164062	96.92692565917969	-1023.974304199219	1714.439208984375	-269.5823059082031	-850.1065673828125	1717.420776367188	-137.1191558837891	-844.3902587890625	1719.572143554688	-235.4251708984375	-1024.642333984375	1706.61865234375	-125.0338821411133	-1037.97705078125	968.46435546875	-400.7377624511719	-1021.594909667969	941.866455078125	-22.85870933532715	-916.749267578125	972.1400146484375	-95.83124542236328	-925.746337890625	1005.859497070312	-329.5795288085938	-849.7179565429688	552.5386352539062	-363.1144409179688	-920.2247924804688	674.9976806640625	-397.3329162597656	-918.20703125	52.89934158325195	-377.2320861816406	-909.1548461914062	301.8996276855469	-390.0043640136719	-704.0660400390625	57.91131973266602	-309.0986328125	-762.2911987304688	61.86903381347656	-292.116455078125	-794.078857421875	56.70629119873047	-393.5938720703125	-987.7694091796875	56.2308464050293	-325.6473083496094	-1063.55517578125	510.6007690429688	-89.98492431640625	-1011.6845703125	773.9415893554688	-35.49502182006836	-1234.328735351562	46.45722198486328	-133.5243072509766	-1104.161254882812	390.8680725097656	-94.81148529052734	-1003.164978027344	45.2749137878418	-177.7104644775391	-1065.463989257812	50.74639129638672	-207.4961395263672	-1086.163330078125	44.79490280151367	-112.426383972168	-1290.01904296875	46.6927604675293	-177.1070251464844	nan	nan	nan	
203	2.02	-1126.289306640625	1058.90234375	-121.2871932983398	-1132.787841796875	1059.252075195312	-284.6014404296875	-1129.001831054688	1126.1884765625	-206.6882629394531	-893.043212890625	1304.11083984375	-200.6842498779297	-1146.556396484375	1270.623779296875	-203.2243347167969	-1082.823364257812	1535.044311523438	-208.3609924316406	-929.1331176757812	1432.62109375	-203.7966461181641	-1141.994995117188	1399.942016601562	-130.4982299804688	-1101.54052734375	1496.079345703125	-307.0554809570312	-998.124267578125	1497.03515625	-379.9859313964844	-1038.390380859375	1376.179321289062	-458.9295959472656	-1062.05859375	1160.75439453125	-485.0128173828125	-1115.503295898438	1150.93310546875	-393.1981506347656	-982.3701782226562	905.0393676757812	-438.3752136230469	-1062.27197265625	892.702392578125	-473.495361328125	-1056.642211914062	1044.197143554688	-492.6211547851562	-951.11279296875	725.5957641601562	-423.2188415527344	-1029.948974609375	802.8444213867188	-476.5498046875	-962.3071899414062	812.84130859375	-455.7796325683594	-1006.8974609375	1514.170043945312	-33.77510452270508	-1024.222900390625	1442.113403320312	38.32670593261719	-1074.083862304688	1175.848510742188	61.09422302246094	-1078.66455078125	1148.02783203125	-35.66906356811523	-959.3109130859375	909.9442749023438	32.33161926269531	-1027.219970703125	899.5130004882812	96.16078186035156	-1065.13134765625	1099.9892578125	76.54412841796875	-955.6034545898438	725.2515258789062	17.18608856201172	-934.3309326171875	798.339111328125	48.85578155517578	-991.5411376953125	797.20654296875	96.7618408203125	-1019.428833007812	1713.799926757812	-270.1118774414062	-845.5811157226562	1716.293701171875	-137.6213836669922	-839.8046875	1718.496459960938	-235.9301452636719	-1020.135620117188	1705.91650390625	-125.5776824951172	-1033.864135742188	967.8440551757812	-400.9672241210938	-1017.825012207031	941.138427734375	-23.07981491088867	-912.899658203125	971.3650512695312	-95.97627258300781	-921.7548828125	1005.234313964844	-329.7222595214844	-843.8355712890625	553.2310180664062	-362.8197021484375	-915.0045776367188	674.9417114257812	-397.3873596191406	-901.8248901367188	52.75357055664062	-377.6751708984375	-898.108642578125	301.939453125	-390.1336364746094	-688.299560546875	60.37875747680664	-307.78759765625	-746.7500610351562	63.65299224853516	-291.3101806640625	-777.66552734375	58.17824172973633	-393.0333557128906	-971.8275756835938	55.14981460571289	-326.6704711914062	-1061.52392578125	510.0813293457031	-90.06487274169922	-1008.51708984375	773.255126953125	-35.75295257568359	-1234.318603515625	46.5455436706543	-133.6474151611328	-1102.627807617188	390.5578002929688	-94.97178649902344	-1003.099670410156	45.23167419433594	-177.6766357421875	-1065.388916015625	50.70246887207031	-207.4726104736328	-1086.126953125	44.77759170532227	-112.3895797729492	-1290.009033203125	46.92740631103516	-177.1860809326172	nan	nan	nan	
